<svg width="34" height="37" viewBox="0 0 34 37" fill="none" xmlns="http://www.w3.org/2000/svg">
<g filter="url(#filter0_d_1_13614)">
<path fill-rule="evenodd" clip-rule="evenodd" d="M17 28.1791C24.1797 28.1791 30 22.5426 30 15.5896C30 8.63654 24.1797 3 17 3C9.8203 3 4 8.63654 4 15.5896C4 19.3712 5.72168 22.7634 8.44737 25.0711V27.6188C8.44737 28.6145 9.4616 29.2824 10.3659 28.8821L13.193 27.6307C14.397 27.9873 15.6754 28.1791 17 28.1791Z" fill="url(#paint0_linear_1_13614)"/>
<path d="M13.887 12.9133L10.1172 18.0689C9.71304 18.6217 10.4399 19.2858 10.9933 18.8693L14.2123 16.4469C14.5399 16.2003 14.9992 16.197 15.3307 16.4388L18.1935 18.5272C18.7425 18.9277 19.5272 18.8125 19.9269 18.2727L23.8805 12.9341C24.2905 12.3804 23.558 11.7109 23.0038 12.1328L19.6006 14.7236C19.2729 14.9731 18.8112 14.9777 18.4782 14.7347L15.6247 12.6531C15.0733 12.2509 14.285 12.369 13.887 12.9133Z" fill="white"/>
</g>
<defs>
<filter id="filter0_d_1_13614" x="-3" y="0" width="40" height="40" filterUnits="userSpaceOnUse" color-interpolation-filters="sRGB">
<feFlood flood-opacity="0" result="BackgroundImageFix"/>
<feColorMatrix in="SourceAlpha" type="matrix" values="0 0 0 0 0 0 0 0 0 0 0 0 0 0 0 0 0 0 127 0" result="hardAlpha"/>
<feOffset dy="4"/>
<feGaussianBlur stdDeviation="2"/>
<feComposite in2="hardAlpha" operator="out"/>
<feColorMatrix type="matrix" values="0 0 0 0 0 0 0 0 0 0 0 0 0 0 0 0 0 0 0.25 0"/>
<feBlend mode="normal" in2="BackgroundImageFix" result="effect1_dropShadow_1_13614"/>
<feBlend mode="normal" in="SourceGraphic" in2="effect1_dropShadow_1_13614" result="shape"/>
</filter>
<linearGradient id="paint0_linear_1_13614" x1="17" y1="3" x2="12.8286" y2="28.8583" gradientUnits="userSpaceOnUse">
<stop stop-color="#00B1FF"/>
<stop offset="1" stop-color="#006BFF"/>
</linearGradient>
</defs>
</svg>
